<mxfile host="app.diagrams.net" modified="2023-08-15T06:38:58.065Z" agent="Mozilla/5.0 (Windows NT 10.0; Win64; x64) AppleWebKit/537.36 (KHTML, like Gecko) Chrome/115.0.0.0 Safari/537.36 OPR/101.0.0.0" version="21.6.8" etag="mpyEmrLO5td8vImwqKcE" type="github">
  <diagram name="Page-1" id="e1X-Z8ea0z3AbN-QaEDR">
    <mxGraphModel>
      <root>
        <mxCell id="0" />
        <mxCell id="1" parent="0" />
      </root>
    </mxGraphModel>
  </diagram>
</mxfile>
